<svg xmlns="http://www.w3.org/2000/svg" width="172" height="127" viewBox="0 0 172 127" fill="none">
  <g transform="translate(1.996 46.485)">
    <path d="M 3.304 41.298 C 3.304 41.298 51.004 75.398 53.904 77.098 C 56.704 78.798 60.804 79.198 64.404 77.798 C 68.004 76.398 70.704 73.198 71.504 69.998 C 72.404 66.798 83.304 9.198 83.304 9.198 C 83.404 8.398 83.704 6.098 82.504 3.898 C 80.804 0.898 77.004 -0.702 73.604 0.298 C 70.904 1.098 69.504 3.098 69.104 3.798 C 68.504 4.898 67.404 6.698 65.404 8.298 C 63.904 9.498 62.404 10.198 61.704 10.498 C 55.604 12.998 48.804 10.898 44.904 5.898 C 42.504 2.798 38.204 1.598 34.404 3.098 C 30.604 4.598 28.404 8.498 28.704 12.398 C 29.404 18.598 25.904 24.798 19.704 27.298 C 16.404 28.598 12.904 28.598 9.804 27.598 C 9.104 27.398 6.604 26.798 4.104 28.198 C 1.004 29.798 -0.596 33.598 0.204 36.998 C 0.804 39.298 2.604 40.798 3.304 41.298 Z" fill="#FF9538"></path>
  </g>
  <g transform="translate(84.456 1.549)">
    <path d="M 0.344 11.534 C 0.344 11.534 17.344 67.734 18.544 70.734 C 19.744 73.834 22.744 76.634 26.444 77.734 C 30.144 78.834 34.244 77.934 36.844 75.934 C 39.444 73.934 83.344 35.034 83.344 35.034 C 83.944 34.534 85.544 32.834 85.944 30.334 C 86.444 26.934 84.344 23.334 81.144 22.034 C 78.544 21.034 76.144 21.734 75.444 22.034 C 74.344 22.534 72.344 23.234 69.844 23.334 C 67.844 23.434 66.344 23.034 65.544 22.834 C 59.244 21.034 55.044 15.234 55.044 8.934 C 54.944 5.034 52.344 1.434 48.444 0.334 C 44.444 -0.766 40.344 0.934 38.244 4.234 C 34.944 9.634 28.444 12.334 22.044 10.534 C 18.644 9.534 15.844 7.434 14.044 4.734 C 13.544 4.134 11.944 2.134 9.144 1.634 C 5.744 1.034 2.044 3.034 0.644 6.134 C -0.456 8.534 0.144 10.734 0.344 11.534 Z" fill="#FF9538"></path>
  </g>
</svg>